<?xml version="1.0" encoding="UTF-8"?>
<svg version="1.1" xmlns="http://www.w3.org/2000/svg" width="512" height="512">
<path d="M0 0 C108.24 0 216.48 0 328 0 C324.53584896 78.52075684 324.53584896 78.52075684 323.40600586 102.76464844 C323.30555342 104.92833838 323.20522174 107.09203391 323.10489934 109.25572988 C321.87304808 135.82134323 320.62848149 162.38637098 319.38111019 188.95125961 C319.22141946 192.35259659 319.06174889 195.75393451 318.90209961 199.15527344 C318.86245213 199.99994282 318.82280465 200.84461221 318.78195573 201.71487764 C318.13183752 215.56915202 317.48808477 229.4237154 316.84662335 243.278393 C316.18131175 257.6455866 315.50989905 272.01248528 314.83262736 286.37912011 C314.45510525 294.39076148 314.08028175 302.4025089 313.71250725 310.41460419 C313.40172477 317.18507553 313.08550221 323.95526447 312.76208609 330.72514459 C312.59771636 334.16938809 312.43595552 337.61370123 312.28129196 341.05839539 C312.11227508 344.79207473 311.93329866 348.52514859 311.7518158 352.25823975 C311.70521456 353.34027357 311.65861333 354.42230739 311.61059994 355.53713012 C311.09347322 365.74847337 309.57668333 375.06836675 301.6875 382.25 C295.2105965 387.83299672 288.76259997 388.43792774 280.5625 388.38095093 C279.52423569 388.3856309 278.48597137 388.39031087 277.41624451 388.39513266 C273.94403231 388.40707984 270.47221499 388.39762623 267 388.38818359 C264.50789154 388.3922494 262.01578488 388.39759133 259.52368164 388.40411377 C253.46158686 388.41637192 247.39964653 388.41457956 241.33755779 388.40587585 C236.40976231 388.39909427 231.48199804 388.39818463 226.55419922 388.4014473 C225.85222695 388.401907 225.15025469 388.40236669 224.42701054 388.40284032 C223.00086338 388.40379952 221.57471624 388.40477216 220.14856911 388.4057581 C206.78289877 388.41430795 193.41729022 388.40448422 180.05163002 388.388357 C168.58907658 388.37495417 157.12661429 388.37728238 145.6640625 388.39111328 C132.34545898 388.40717625 119.02690958 388.41348402 105.70829773 388.40427649 C104.28746542 388.40332087 102.86663311 388.40237775 101.44580078 388.4014473 C100.74676667 388.40098447 100.04773256 388.40052164 99.3275156 388.40004479 C94.40696982 388.39745705 89.48645843 388.40182123 84.56591797 388.40888596 C77.94044995 388.41818966 71.31512734 388.41154362 64.68966675 388.39420319 C62.25764248 388.3902354 59.82560372 388.39137735 57.39358521 388.39799118 C54.0746943 388.4061849 50.75635569 388.39591066 47.4375 388.38095093 C46.47436386 388.38764309 45.51122772 388.39433526 44.51890564 388.40123022 C35.86002745 388.32549198 30.20447389 385.85549922 23.796875 379.95703125 C17.6170337 373.226378 17.02996649 365.39638896 16.61145687 356.56161308 C16.5502481 355.30370362 16.48903932 354.04579416 16.42597574 352.74976623 C16.36204353 351.36678012 16.29817375 349.98379113 16.23435974 348.60079956 C16.1636584 347.12162954 16.09266511 345.64247344 16.02140576 344.1633302 C15.82684426 340.10717341 15.63643068 336.05083096 15.44670355 331.99444556 C15.24121712 327.61667615 15.03188334 323.23909049 14.82302856 318.86148071 C14.41467412 310.28961785 14.00986157 301.7175912 13.60622936 293.14550482 C13.13615327 283.1652929 12.66251119 273.18525118 12.18870366 263.20521583 C11.34355968 245.40109805 10.50156297 227.59683284 9.66137695 209.79248047 C8.84583693 192.51047627 8.02823353 175.22857139 7.20825195 157.94677734 C7.15773575 156.88209901 7.10721955 155.81742067 7.05517256 154.72047935 C7.00474359 153.65765252 6.95431463 152.59482569 6.90235752 151.49979198 C6.80082513 149.35992236 6.69929333 147.22005271 6.59776211 145.08018303 C6.54769159 144.02490886 6.49762107 142.96963468 6.44603327 141.8823825 C5.66497038 125.41922301 4.88570242 108.9559785 4.10665594 92.49272349 C3.82415333 86.52310883 3.54140323 80.55350596 3.25847869 74.58391128 C2.80979986 65.11670015 2.3618978 55.64945297 1.91560035 46.18212925 C1.71162475 41.855464 1.50728124 37.528817 1.30192375 33.2022171 C1.11404789 29.24361114 0.92726458 25.2849552 0.74136532 21.32625593 C0.6738382 19.89231517 0.60591248 18.45839311 0.53755324 17.02449177 C0.44484814 15.07861426 0.35373384 13.13266115 0.26270199 11.18670464 C0.2116021 10.10487872 0.1605022 9.0230528 0.10785383 7.90844429 C0.01015562 5.2738619 0 2.63639323 0 0 Z M74 85 C71.95612686 89.84489627 71.71429267 94.35002854 71.73930359 99.53294373 C71.73547804 100.37842665 71.73165249 101.22390958 71.72771102 102.0950132 C71.71741359 104.92074635 71.72136697 107.74627506 71.7253418 110.57202148 C71.72099354 112.60093371 71.71581001 114.6298443 71.70985413 116.65875244 C71.69646562 122.16490841 71.69588526 127.67099572 71.69841743 133.17716479 C71.69948716 137.77466893 71.69460374 142.37215918 71.689812 146.96966034 C71.67871749 157.81580301 71.67827921 168.66191104 71.68432617 179.50805664 C71.69036786 190.69615292 71.67804983 201.8841235 71.6567561 213.07219833 C71.63914261 222.68000065 71.63313832 232.28776295 71.63639385 241.89558083 C71.63820712 247.63299703 71.63556591 253.37032356 71.62167931 259.10772514 C71.60910963 264.50285237 71.61103702 269.89778352 71.62409019 275.29290771 C71.62645733 277.27180612 71.6237164 279.25071828 71.61546707 281.22960091 C71.60500966 283.93331905 71.61309221 286.63637809 71.6257782 289.34007263 C71.61840391 290.12101632 71.61102963 290.90196001 71.60343188 291.70656866 C71.65406684 296.8448646 72.57661667 300.44149272 75 305 C79.95066006 308.70354722 85.13019634 308.45311373 91.0625 308.375 C91.94744141 308.38660156 92.83238281 308.39820313 93.74414062 308.41015625 C98.59111896 308.38833939 102.17884386 308.30829775 106 305 C109.35426636 300.66792188 109.42470413 296.65956528 109.38095093 291.3840332 C109.3856309 290.51757581 109.39031087 289.65111841 109.39513266 288.75840473 C109.40709652 285.85570777 109.39761995 282.9534817 109.38818359 280.05078125 C109.39224867 277.96951014 109.39759019 275.88824118 109.40411377 273.80697632 C109.41780069 268.15417066 109.41248298 262.50152911 109.40297651 256.84872055 C109.39538709 250.93600773 109.40242353 245.02330907 109.40713501 239.1105957 C109.41259464 229.18080113 109.40539546 219.25107348 109.39111328 209.32128906 C109.37478641 197.83722096 109.38007477 186.35331262 109.3965925 174.86924839 C109.41020141 165.01351077 109.41212992 155.15782128 109.40427649 145.30207729 C109.39959672 139.41381142 109.39898353 133.52562068 109.40888596 127.63735962 C109.41754464 122.10188941 109.41155366 116.56662543 109.39420319 111.03117752 C109.39023249 108.99822965 109.39138232 106.96526446 109.39799118 104.93232346 C109.40617363 102.15996934 109.39592494 99.38827851 109.38095093 96.6159668 C109.38764309 95.80906056 109.39433526 95.00215433 109.40123022 94.17079639 C109.35329969 89.6042632 108.83324104 86.63353657 106 83 C101.45245288 79.84173241 95.87724941 80.63158173 90.5625 80.625 C89.52544922 80.60050781 88.48839844 80.57601562 87.41992188 80.55078125 C79.79352169 80.43599146 79.79352169 80.43599146 74 85 Z M148.796875 83.4609375 C148.20390625 84.29882812 147.6109375 85.13671875 147 86 C146.67 86.33 146.34 86.66 146 87 C145.89101714 89.75754618 145.84775364 92.49042683 145.84609985 95.24884033 C145.8417176 96.12413069 145.83733535 96.99942104 145.8328203 97.90123534 C145.81938048 100.85766158 145.81324185 103.81405797 145.80712891 106.77050781 C145.799232 108.88074378 145.79096331 110.99097839 145.78234863 113.10121155 C145.7560803 120.05183616 145.74081594 127.00246694 145.7265625 133.953125 C145.72120475 136.34185541 145.71582725 138.73058578 145.71043015 141.1193161 C145.68879413 151.05308128 145.67005607 160.9868448 145.65880775 170.92062759 C145.642561 185.17716992 145.6093736 199.43343999 145.55240691 213.68987966 C145.51375597 223.70263404 145.49418079 233.71531545 145.48888719 243.7281425 C145.48522701 249.7138157 145.47313502 255.69919885 145.44078445 261.68479156 C145.41078939 267.31547728 145.40436152 272.94569615 145.41616821 278.57644463 C145.41638967 280.64488652 145.40802556 282.71334952 145.39051437 284.7817173 C145.36792799 287.60278683 145.37606867 290.4221485 145.39199829 293.2432251 C145.3781162 294.06453265 145.36423412 294.88584021 145.34993136 295.73203588 C145.40896738 299.96637271 145.63771761 301.53995326 148.35050011 304.98479843 C153.24267834 308.70577433 157.92572339 308.21633723 163.8125 308.25 C164.70259766 308.270625 165.59269531 308.29125 166.50976562 308.3125 C171.75363434 308.34359781 175.50626151 308.01934078 180 305 C182.56931248 301.14603128 182.28724602 297.97947066 182.27415466 293.51065063 C182.27939134 292.63365143 182.28462802 291.75665223 182.29002339 290.85307729 C182.30507238 287.9028197 182.30572961 284.9527348 182.30639648 282.00244141 C182.31401465 279.89190883 182.32244155 277.78137903 182.33161926 275.67085266 C182.35360433 269.92913685 182.36236849 264.1874743 182.36744571 258.44572115 C182.37108439 254.8607841 182.37732187 251.27586111 182.3844471 247.69092941 C182.40895501 235.19075657 182.4219965 222.69062532 182.42553711 210.19042969 C182.42917396 198.52797973 182.45907676 186.8657927 182.50094169 175.20342314 C182.53559908 165.19911182 182.55108476 155.19488781 182.55178314 145.19051683 C182.55257748 139.211594 182.56138802 133.23293886 182.58978081 127.25407791 C182.61588348 121.63155535 182.61821015 116.0095239 182.60212517 110.38696861 C182.60030449 108.32175695 182.60705684 106.25651755 182.62294388 104.1913662 C182.64329311 101.37476301 182.63291853 98.55989619 182.61473083 95.74331665 C182.6279308 94.92337333 182.64113077 94.10343002 182.65473074 93.25863993 C182.59094896 88.94309749 182.39004907 87.47008362 179.52407932 84.01604271 C178.69113315 83.35074862 177.85818697 82.68545452 177 82 C176.67 81.67 176.34 81.34 176 81 C172.09216999 80.6631181 168.17047801 80.67491349 164.25 80.625 C163.15171875 80.58761719 162.0534375 80.55023438 160.921875 80.51171875 C154.26450761 80.22337982 154.26450761 80.22337982 148.796875 83.4609375 Z M221 84 C218.33130064 87.81673846 218.71844944 92.02716478 218.73930359 96.49571228 C218.73547804 97.36131525 218.73165249 98.22691822 218.72771102 99.11875159 C218.7173774 102.0244603 218.72137386 104.92997154 218.7253418 107.83569336 C218.72099554 109.91681603 218.71581268 111.9979371 218.70985413 114.07905579 C218.69644392 119.736017 218.69588769 125.39291149 218.69841743 131.04988551 C218.69948573 135.76925877 218.6946074 140.48861844 218.689812 145.2079888 C218.6787099 156.33975999 218.67828342 167.47149743 218.68432617 178.60327148 C218.69036814 190.09469641 218.67805085 201.58599896 218.6567561 213.07740301 C218.6391551 222.93736075 218.63313636 232.79727949 218.63639385 242.65725237 C218.63820918 248.54889378 218.63554553 254.4404479 218.62167931 260.33207512 C218.60912997 265.8716245 218.61101766 271.41098275 218.62409019 276.9505291 C218.62646181 278.98509281 218.62370045 281.01966986 218.61546707 283.05421829 C218.60504745 285.82880378 218.61306175 288.6027422 218.6257782 291.37730408 C218.61840391 292.18489243 218.61102963 292.99248078 218.60343188 293.82454151 C218.64766338 298.40306103 219.1742903 301.35225553 222 305 C226.47432062 308.87379744 231.31910681 308.44865701 236.9375 308.375 C237.81857422 308.38660156 238.69964844 308.39820313 239.60742188 308.41015625 C244.73182248 308.38712524 248.75670397 308.17437413 253 305 C255.84920214 299.63839579 256.43247135 295.3537376 256.38095093 289.34680176 C256.3856309 288.50046441 256.39031087 287.65412705 256.39513266 286.78214312 C256.40705411 283.95941817 256.39763661 281.13718128 256.38818359 278.31445312 C256.39225056 276.28539243 256.39759314 274.25633395 256.40411377 272.22727966 C256.41777825 266.72527818 256.41249223 261.22344566 256.40297651 255.72144127 C256.39537547 249.96048913 256.40242677 244.19955135 256.40713501 238.43859863 C256.41259125 228.76454067 256.40540435 219.09055143 256.39111328 209.41650391 C256.37478706 198.23576426 256.38007566 187.05518874 256.3965925 175.87445307 C256.41021106 166.27087071 256.4121252 156.66733773 256.40427649 147.06374884 C256.39960203 141.32970839 256.39896894 135.59574507 256.40888596 129.86170959 C256.41755867 124.4706613 256.41152795 119.07982439 256.39420319 113.6887989 C256.39024 111.71151645 256.3913695 109.73421618 256.39799118 107.75694084 C256.40620333 105.05545399 256.39588904 102.35464222 256.38095093 99.65319824 C256.38764309 98.87293667 256.39433526 98.0926751 256.40123022 97.28876925 C256.33892563 91.46958024 255.35298695 86.42002098 251.14038086 82.08740234 C248.52087695 80.7565856 246.68750172 80.61246131 243.75390625 80.6015625 C242.75166016 80.59769531 241.74941406 80.59382813 240.71679688 80.58984375 C239.15541992 80.60724609 239.15541992 80.60724609 237.5625 80.625 C236.52544922 80.61339844 235.48839844 80.60179687 234.41992188 80.58984375 C227.14341152 80.49085146 227.14341152 80.49085146 221 84 Z " fill="#000000" transform="translate(92,124)"/>
<path d="M0 0 C2.17706299 -0.37752342 2.17706299 -0.37752342 4.93457031 -0.38095093 C5.97778442 -0.3894104 7.02099854 -0.39786987 8.0958252 -0.40658569 C9.8195636 -0.39747665 9.8195636 -0.39747665 11.578125 -0.38818359 C12.78464722 -0.39344055 13.99116943 -0.39869751 15.23425293 -0.40411377 C18.54840959 -0.41507753 21.86200655 -0.41247666 25.1761322 -0.40297651 C28.63989022 -0.39539549 32.10362388 -0.40242117 35.56738281 -0.40713501 C41.38480945 -0.41259714 47.20212193 -0.40538906 53.01953125 -0.39111328 C59.75086744 -0.37478579 66.48193107 -0.38007398 73.21326065 -0.3965925 C78.98655663 -0.41019445 84.75977042 -0.41213339 90.53307724 -0.40427649 C93.98388895 -0.39959281 97.43457244 -0.39899401 100.88537598 -0.40888596 C104.73098393 -0.41913907 108.57628513 -0.40493928 112.421875 -0.38818359 C113.57103394 -0.39425629 114.72019287 -0.40032898 115.9041748 -0.40658569 C116.94738892 -0.39812622 117.99060303 -0.38966675 119.06542969 -0.38095093 C119.9754071 -0.37981985 120.88538452 -0.37868877 121.82293701 -0.37752342 C122.90058319 -0.19064933 122.90058319 -0.19064933 124 0 C126.23413013 3.35119519 126.23847762 4.4177755 126.1953125 8.32421875 C126.18564453 9.86625977 126.18564453 9.86625977 126.17578125 11.43945312 C126.15064453 13.04723633 126.15064453 13.04723633 126.125 14.6875 C126.11597656 15.77095703 126.10695313 16.85441406 126.09765625 17.97070312 C126.0740734 20.6473571 126.04116126 23.32356797 126 26 C126.58714846 25.99723462 127.17429691 25.99446924 127.77923775 25.99162006 C142.07663697 25.92531986 156.37402246 25.8756998 170.67154121 25.84456348 C177.58577119 25.82910533 184.49989846 25.80803605 191.4140625 25.77368164 C198.0859913 25.74054667 204.75779131 25.72314887 211.42980576 25.71536827 C213.97591711 25.70982309 216.52202259 25.69899483 219.06808853 25.68280983 C222.63292335 25.66104888 226.19731653 25.6580326 229.76220703 25.65942383 C230.81597031 25.648638 231.86973358 25.63785217 232.95542908 25.6267395 C239.15693473 25.6529467 243.89674019 26.10313277 248.64453125 30.53515625 C263.36799122 49.7889116 253 52.82888075 253 94 C126.94 94 0.88 94 -129 94 C-129 37 -129 37 -125 31 C-120.82143141 27.22909664 -117.86401383 25.87364884 -112.27339172 25.87974548 C-111.30164001 25.87837082 -110.32988831 25.87699615 -109.32868958 25.87557983 C-107.73186592 25.88097275 -107.73186592 25.88097275 -106.1027832 25.88647461 C-104.98068451 25.88632858 -103.85858582 25.88618256 -102.70248413 25.8860321 C-98.98523032 25.88673002 -95.26802633 25.89451683 -91.55078125 25.90234375 C-88.9767408 25.90420836 -86.40269999 25.90563206 -83.82865906 25.90663147 C-77.74074472 25.91006243 -71.65285101 25.91794782 -65.56494445 25.92798096 C-58.63393306 25.93915579 -51.70292083 25.944656 -44.77190268 25.94967639 C-30.51459215 25.96013079 -16.25729671 25.9777217 -2 26 C-2.01047363 25.31897217 -2.02094727 24.63794434 -2.03173828 23.9362793 C-2.07328878 20.85339034 -2.09932311 17.77056029 -2.125 14.6875 C-2.14175781 13.61564453 -2.15851563 12.54378906 -2.17578125 11.43945312 C-2.18222656 10.41142578 -2.18867188 9.38339844 -2.1953125 8.32421875 C-2.20578613 7.37635498 -2.21625977 6.42849121 -2.22705078 5.4519043 C-2 3 -2 3 0 0 Z " fill="#000000" transform="translate(194,0)"/>
</svg>
